<?xml version="1.0" encoding="UTF-8"?>
<svg id="Warstwa_1" xmlns="http://www.w3.org/2000/svg" version="1.1" viewBox="0 0 848.17 678.59">
  <!-- Generator: Adobe Illustrator 29.5.1, SVG Export Plug-In . SVG Version: 2.1.0 Build 141)  -->
  <path d="M543.97,76.83h74.5l1.5,1.5v73.5h73.5l1.55,3.45-.05,71.55h72.5c.33,0,1.52,1.32,2.5,1v74h73.5l1.5,1.5v73l-1.5,1.5h-73.5v74c-.98-.32-2.17,1-2.5,1h-72.5l.05,71.55-1.55,3.45h-73.5v73.5l-1.5,1.5h-74.5c-.27.73,1,1.2,1,1.5v72c-.63.94-2.5,1.5-3.5,1.5h-71l-1.5-1.5v-73l1.5-1.5h73.5c.12-1.14.64-2.12.65-3.29.16-20.92-3.07-48.09-.7-68.26.17-1.46.12-2.57,1.55-3.45h73.5v-73.5l1.5-1.5h73.5v-74H20.47l-1.5-1.5v-73l1.5-1.5h673.5v-74h-73.5l-1.5-1.5v-73.5h-73.5c-1.43-.88-1.38-1.99-1.55-3.45-2.37-20.17.86-47.34.7-68.26,0-1.17-.53-2.15-.65-3.29h-73.5l-1.5-1.5V3.33l1.5-1.5h71c1,0,2.87.56,3.5,1.5v72c0,.3-1.27.77-1,1.5Z"/>
</svg>